<svg width="103" height="34" viewBox="0 0 103 34" fill="none" xmlns="http://www.w3.org/2000/svg">
<path d="M25.3485 8.972C25.6605 8.972 25.9005 9.116 26.0685 9.404C26.2605 9.692 26.3565 10.088 26.3565 10.592C26.3565 11.552 26.1285 12.296 25.6725 12.824C24.6405 14.096 23.5245 15.14 22.3245 15.956C21.1485 16.772 19.8045 17.18 18.2925 17.18C17.0205 17.18 15.9885 16.724 15.1965 15.812C13.8285 16.7 12.4005 17.156 10.9125 17.18C10.6005 21.812 9.89248 25.676 8.78848 28.772C7.68448 31.892 6.06448 33.452 3.92848 33.452C2.63248 33.452 1.67248 32.984 1.04848 32.048C0.424484 31.112 0.112484 29.816 0.112484 28.16C0.112484 25.808 0.652484 23.06 1.73248 19.916C2.81248 16.796 4.48048 13.352 6.73648 9.584C6.73648 6.08 6.71248 3.644 6.66448 2.276C6.64048 1.58 6.91648 1.028 7.49248 0.62C8.06848 0.211999 8.78848 0.00799882 9.65248 0.00799882C10.1565 0.00799882 10.5165 0.115999 10.7325 0.331999C10.9725 0.523999 11.1045 0.92 11.1285 1.52C11.1285 2.12 11.1405 2.564 11.1645 2.852C11.9325 1.892 12.6885 1.208 13.4325 0.799999C14.1765 0.367999 14.9685 0.151999 15.8085 0.151999C17.1525 0.151999 18.2445 0.691999 19.0845 1.772C19.9485 2.852 20.3805 4.268 20.3805 6.02C20.3805 7.292 20.1765 8.528 19.7685 9.728C19.3605 10.928 18.7965 12.02 18.0765 13.004C18.5805 13.148 19.0005 13.22 19.3365 13.22C20.1285 13.22 20.8845 12.932 21.6045 12.356C22.3245 11.78 23.2485 10.82 24.3765 9.476C24.6645 9.14 24.9885 8.972 25.3485 8.972ZM11.0925 13.724C11.9565 13.532 12.7485 13.064 13.4685 12.32C14.2125 11.552 14.8005 10.616 15.2325 9.512C15.6645 8.384 15.8805 7.208 15.8805 5.984C15.8805 5.264 15.7365 4.724 15.4485 4.364C15.1605 3.98 14.7765 3.788 14.2965 3.788C13.4325 3.788 12.3885 4.7 11.1645 6.524C11.1405 7.58 11.1285 9.128 11.1285 11.168C11.1285 12.272 11.1165 13.124 11.0925 13.724ZM4.21648 29.924C4.86448 29.924 5.40448 28.508 5.83648 25.676C6.26848 22.868 6.54448 19.364 6.66448 15.164C5.63248 17.564 4.81648 19.856 4.21648 22.04C3.61648 24.224 3.31648 26.06 3.31648 27.548C3.31648 28.316 3.41248 28.904 3.60448 29.312C3.77248 29.72 3.97648 29.924 4.21648 29.924ZM27.8845 17.18C26.3965 17.18 25.2085 16.64 24.3205 15.56C23.4325 14.48 22.9885 13.064 22.9885 11.312C22.9885 9.392 23.4325 7.58 24.3205 5.876C25.2085 4.148 26.3845 2.768 27.8485 1.736C29.3365 0.679999 30.9085 0.151999 32.5645 0.151999C33.0925 0.151999 33.4405 0.259999 33.6085 0.475999C33.8005 0.667999 33.9565 1.028 34.0765 1.556C34.5805 1.46 35.1085 1.412 35.6605 1.412C36.8365 1.412 37.4245 1.832 37.4245 2.672C37.4245 3.176 37.2445 4.376 36.8845 6.272C36.3325 9.032 36.0565 10.952 36.0565 12.032C36.0565 12.392 36.1405 12.68 36.3085 12.896C36.5005 13.112 36.7405 13.22 37.0285 13.22C37.4845 13.22 38.0365 12.932 38.6845 12.356C39.3325 11.756 40.2085 10.796 41.3125 9.476C41.6005 9.14 41.9245 8.972 42.2845 8.972C42.5965 8.972 42.8365 9.116 43.0045 9.404C43.1965 9.692 43.2925 10.088 43.2925 10.592C43.2925 11.552 43.0645 12.296 42.6085 12.824C41.6245 14.048 40.5805 15.08 39.4765 15.92C38.3725 16.76 37.3045 17.18 36.2725 17.18C35.4805 17.18 34.7485 16.916 34.0765 16.388C33.4285 15.836 32.9365 15.092 32.6005 14.156C31.3525 16.172 29.7805 17.18 27.8845 17.18ZM29.1805 13.544C29.7085 13.544 30.2125 13.232 30.6925 12.608C31.1725 11.984 31.5205 11.156 31.7365 10.124L33.0685 3.5C32.0605 3.524 31.1245 3.908 30.2605 4.652C29.4205 5.372 28.7485 6.332 28.2445 7.532C27.7405 8.732 27.4885 10.004 27.4885 11.348C27.4885 12.092 27.6325 12.644 27.9205 13.004C28.2325 13.364 28.6525 13.544 29.1805 13.544ZM42.9227 17.18C42.0107 17.18 41.3627 16.7 40.9787 15.74C40.6187 14.78 40.4387 13.244 40.4387 11.132C40.4387 8.012 40.8827 5.048 41.7707 2.24C41.9867 1.544 42.3347 1.04 42.8147 0.727999C43.3187 0.391999 44.0147 0.223999 44.9027 0.223999C45.3827 0.223999 45.7187 0.283999 45.9107 0.403999C46.1027 0.523999 46.1987 0.751999 46.1987 1.088C46.1987 1.472 46.0187 2.336 45.6587 3.68C45.4187 4.64 45.2267 5.48 45.0827 6.2C44.9387 6.92 44.8187 7.808 44.7227 8.864C45.5147 6.8 46.4027 5.12 47.3867 3.824C48.3707 2.528 49.3307 1.604 50.2667 1.052C51.2267 0.499999 52.1027 0.223999 52.8947 0.223999C54.4547 0.223999 55.2347 1.004 55.2347 2.564C55.2347 2.876 55.1267 3.632 54.9107 4.832C54.7187 5.792 54.6227 6.392 54.6227 6.632C54.6227 7.472 54.9227 7.892 55.5227 7.892C56.1947 7.892 57.0587 7.364 58.1147 6.308C58.4267 5.996 58.7507 5.84 59.0867 5.84C59.3987 5.84 59.6387 5.984 59.8067 6.272C59.9987 6.536 60.0947 6.896 60.0947 7.352C60.0947 8.24 59.8547 8.936 59.3747 9.44C58.7027 10.136 57.9107 10.736 56.9987 11.24C56.1107 11.72 55.1627 11.96 54.1547 11.96C52.8827 11.96 51.9107 11.636 51.2387 10.988C50.5907 10.34 50.2667 9.464 50.2667 8.36C50.2667 8 50.3027 7.64 50.3747 7.28C50.4227 6.8 50.4467 6.476 50.4467 6.308C50.4467 5.924 50.3147 5.732 50.0507 5.732C49.6907 5.732 49.2107 6.14 48.6107 6.956C48.0347 7.748 47.4587 8.804 46.8827 10.124C46.3067 11.444 45.8387 12.836 45.4787 14.3C45.2147 15.428 44.9027 16.196 44.5427 16.604C44.2067 16.988 43.6667 17.18 42.9227 17.18ZM76.0109 6.056C76.0829 6.032 76.2029 6.02 76.3709 6.02C76.7309 6.02 77.0069 6.14 77.1989 6.38C77.3909 6.62 77.4869 6.944 77.4869 7.352C77.4869 8.096 77.3429 8.684 77.0549 9.116C76.7669 9.524 76.3349 9.824 75.7589 10.016C74.6549 10.376 73.4789 10.556 72.2309 10.556C71.1749 10.556 70.1789 10.412 69.2429 10.124C68.5469 11.252 67.7789 12.416 66.9389 13.616C65.9789 14.984 65.1509 15.92 64.4549 16.424C63.7589 16.928 62.9669 17.18 62.0789 17.18C61.0949 17.18 60.3149 16.796 59.7389 16.028C59.1869 15.26 58.8389 14.048 58.6949 12.392C58.4069 9.032 58.2629 6.092 58.2629 3.572V2.312C58.2869 1.52 58.5029 0.967999 58.9109 0.655999C59.3189 0.344 59.9309 0.188 60.7469 0.188C61.3709 0.188 61.8269 0.332 62.1149 0.62C62.4269 0.883999 62.5829 1.34 62.5829 1.988C62.5829 4.748 62.7509 8.336 63.0869 12.752C64.5269 10.616 65.6069 8.912 66.3269 7.64C65.9669 6.944 65.7869 6.116 65.7869 5.156C65.7869 4.34 65.9669 3.548 66.3269 2.78C66.6869 2.012 67.1789 1.388 67.8029 0.907999C68.4269 0.427999 69.1349 0.188 69.9269 0.188C70.6229 0.188 71.1869 0.44 71.6189 0.944C72.0509 1.424 72.2669 2.132 72.2669 3.068C72.2669 4.148 71.9789 5.384 71.4029 6.776C72.3149 6.728 73.5269 6.548 75.0389 6.236L76.0109 6.056ZM90.4188 8.972C90.7308 8.972 90.9708 9.116 91.1388 9.404C91.3308 9.692 91.4268 10.088 91.4268 10.592C91.4268 11.552 91.1988 12.296 90.7428 12.824C89.8548 13.904 88.5948 14.9 86.9628 15.812C85.3548 16.724 83.6268 17.18 81.7788 17.18C79.2588 17.18 77.3028 16.496 75.9108 15.128C74.5188 13.76 73.8228 11.888 73.8228 9.512C73.8228 7.856 74.1708 6.32 74.8668 4.904C75.5628 3.464 76.5228 2.324 77.7468 1.484C78.9948 0.643999 80.3988 0.223999 81.9588 0.223999C83.3508 0.223999 84.4668 0.643999 85.3068 1.484C86.1468 2.3 86.5668 3.416 86.5668 4.832C86.5668 6.488 85.9668 7.916 84.7668 9.116C83.5908 10.292 81.5868 11.228 78.7548 11.924C79.3548 13.028 80.4948 13.58 82.1748 13.58C83.2548 13.58 84.4788 13.208 85.8468 12.464C87.2388 11.696 88.4388 10.7 89.4468 9.476C89.7348 9.14 90.0588 8.972 90.4188 8.972ZM81.3468 3.752C80.4588 3.752 79.7028 4.268 79.0788 5.3C78.4788 6.332 78.1788 7.58 78.1788 9.044V9.116C79.5948 8.78 80.7108 8.276 81.5268 7.604C82.3428 6.932 82.7508 6.152 82.7508 5.264C82.7508 4.808 82.6188 4.448 82.3548 4.184C82.1148 3.896 81.7788 3.752 81.3468 3.752ZM100.808 13.076C101.336 13.052 101.732 13.244 101.996 13.652C102.284 14.036 102.428 14.516 102.428 15.092C102.428 15.692 102.284 16.22 101.996 16.676C101.732 17.132 101.36 17.36 100.88 17.36C100.016 17.36 99.1996 17.348 98.4316 17.324C97.6876 17.3 97.0276 17.276 96.4516 17.252C94.2436 17.156 92.6836 17.108 91.7716 17.108C91.4596 17.108 91.0036 17.216 90.4036 17.432C89.6356 17.672 89.1076 17.792 88.8196 17.792C87.5476 17.792 86.9116 16.976 86.9116 15.344C86.9116 14.24 87.3076 12.992 88.0996 11.6C88.8916 10.184 89.9236 8.816 91.1956 7.496C92.4676 6.176 93.7876 5.072 95.1556 4.184L90.0796 4.328C89.5516 4.352 89.1436 4.172 88.8556 3.788C88.5916 3.38 88.4596 2.9 88.4596 2.348C88.4596 1.772 88.5916 1.268 88.8556 0.835999C89.1436 0.379999 89.5276 0.151999 90.0076 0.151999C91.0636 0.151999 92.3716 0.235999 93.9316 0.403999C94.1956 0.427999 94.7596 0.476 95.6236 0.547999C96.5116 0.619999 97.3276 0.655999 98.0716 0.655999C98.3116 0.655999 98.7676 0.559999 99.4396 0.368C99.5596 0.343999 99.7876 0.283999 100.124 0.188C100.484 0.0919995 100.784 0.0439994 101.024 0.0439994C101.408 0.0439994 101.72 0.211999 101.96 0.547999C102.224 0.883999 102.356 1.4 102.356 2.096C102.356 2.864 102.164 3.476 101.78 3.932C101.42 4.388 100.868 4.796 100.124 5.156C99.2836 5.54 98.2996 6.2 97.1716 7.136C96.0436 8.072 94.9756 9.116 93.9676 10.268C92.9596 11.396 92.2156 12.464 91.7356 13.472L100.808 13.076Z" fill="white"/>
</svg>
